<svg xmlns="http://www.w3.org/2000/svg" version="1.1" xmlns:xlink="http://www.w3.org/1999/xlink" xmlns:svgjs="http://svgjs.com/svgjs" width="1080" height="720" preserveAspectRatio="none" viewBox="0 0 1080 720"><g mask="url(&quot;#SvgjsMask1939&quot;)" fill="none"><rect width="1080" height="720" x="0" y="0" fill="url(#SvgjsLinearGradient1940)"></rect><path d="M-51.95 450.98L-51.95 450.98" stroke="rgba(7, 33, 85, 1)" stroke-width="1.5"></path><path d="M-51.95 450.98L84.98 494.06" stroke="rgba(7, 33, 85, 1)" stroke-width="1.5"></path><path d="M-51.95 450.98L-89.91 637.95" stroke="rgba(7, 33, 85, 1)" stroke-width="1.5"></path><path d="M-51.95 450.98L93.42 623.89" stroke="rgba(7, 33, 85, 1)" stroke-width="1.5"></path><path d="M-51.95 450.98L-57.64 715.6" stroke="rgba(7, 33, 85, 1)" stroke-width="1.5"></path><path d="M-51.95 450.98L236.01 446.57" stroke="rgba(7, 33, 85, 1)" stroke-width="1.5"></path><path d="M-51.95 450.98L75.07 713.13" stroke="rgba(7, 33, 85, 1)" stroke-width="1.5"></path><path d="M-89.91 637.95L-89.91 637.95" stroke="rgba(7, 33, 85, 1)" stroke-width="1.5"></path><path d="M-89.91 637.95L-57.64 715.6" stroke="rgba(7, 33, 85, 1)" stroke-width="1.5"></path><path d="M-89.91 637.95L75.07 713.13" stroke="rgba(7, 33, 85, 1)" stroke-width="1.5"></path><path d="M-57.64 715.6L-57.64 715.6" stroke="rgba(7, 33, 85, 1)" stroke-width="1.5"></path><path d="M-53.02 904.59L-53.02 904.59" stroke="rgba(7, 33, 85, 1)" stroke-width="1.5"></path><path d="M-53.02 904.59L53.56 876.46" stroke="rgba(7, 33, 85, 1)" stroke-width="1.5"></path><path d="M-53.02 904.59L-57.64 715.6" stroke="rgba(7, 33, 85, 1)" stroke-width="1.5"></path><path d="M-53.02 904.59L75.07 713.13" stroke="rgba(7, 33, 85, 1)" stroke-width="1.5"></path><path d="M-53.02 904.59L198.08 911.23" stroke="rgba(7, 33, 85, 1)" stroke-width="1.5"></path><path d="M-53.02 904.59L-89.91 637.95" stroke="rgba(7, 33, 85, 1)" stroke-width="1.5"></path><path d="M84.98 494.06L84.98 494.06" stroke="rgba(7, 33, 85, 1)" stroke-width="1.5"></path><path d="M84.98 494.06L93.42 623.89" stroke="rgba(7, 33, 85, 1)" stroke-width="1.5"></path><path d="M84.98 494.06L236.01 446.57" stroke="rgba(7, 33, 85, 1)" stroke-width="1.5"></path><path d="M84.98 494.06L214.53 639.95" stroke="rgba(7, 33, 85, 1)" stroke-width="1.5"></path><path d="M93.42 623.89L93.42 623.89" stroke="rgba(7, 33, 85, 1)" stroke-width="1.5"></path><path d="M93.42 623.89L75.07 713.13" stroke="rgba(7, 33, 85, 1)" stroke-width="1.5"></path><path d="M93.42 623.89L214.53 639.95" stroke="rgba(7, 33, 85, 1)" stroke-width="1.5"></path><path d="M93.42 623.89L-57.64 715.6" stroke="rgba(7, 33, 85, 1)" stroke-width="1.5"></path><path d="M93.42 623.89L207.38 759.43" stroke="rgba(7, 33, 85, 1)" stroke-width="1.5"></path><path d="M75.07 713.13L75.07 713.13" stroke="rgba(7, 33, 85, 1)" stroke-width="1.5"></path><path d="M75.07 713.13L-57.64 715.6" stroke="rgba(7, 33, 85, 1)" stroke-width="1.5"></path><path d="M75.07 713.13L207.38 759.43" stroke="rgba(7, 33, 85, 1)" stroke-width="1.5"></path><path d="M75.07 713.13L214.53 639.95" stroke="rgba(7, 33, 85, 1)" stroke-width="1.5"></path><path d="M53.56 876.46L53.56 876.46" stroke="rgba(7, 33, 85, 1)" stroke-width="1.5"></path><path d="M53.56 876.46L198.08 911.23" stroke="rgba(7, 33, 85, 1)" stroke-width="1.5"></path><path d="M53.56 876.46L75.07 713.13" stroke="rgba(7, 33, 85, 1)" stroke-width="1.5"></path><path d="M53.56 876.46L207.38 759.43" stroke="rgba(7, 33, 85, 1)" stroke-width="1.5"></path><path d="M53.56 876.46L-57.64 715.6" stroke="rgba(7, 33, 85, 1)" stroke-width="1.5"></path><path d="M53.56 876.46L93.42 623.89" stroke="rgba(7, 33, 85, 1)" stroke-width="1.5"></path><path d="M236.01 446.57L236.01 446.57" stroke="rgba(7, 33, 85, 1)" stroke-width="1.5"></path><path d="M236.01 446.57L320.76 463.09" stroke="rgba(7, 33, 85, 1)" stroke-width="1.5"></path><path d="M236.01 446.57L214.53 639.95" stroke="rgba(7, 33, 85, 1)" stroke-width="1.5"></path><path d="M214.53 639.95L214.53 639.95" stroke="rgba(7, 33, 85, 1)" stroke-width="1.5"></path><path d="M214.53 639.95L330.36 627.7" stroke="rgba(7, 33, 85, 1)" stroke-width="1.5"></path><path d="M214.53 639.95L207.38 759.43" stroke="rgba(7, 33, 85, 1)" stroke-width="1.5"></path><path d="M214.53 639.95L357.84 712.19" stroke="rgba(7, 33, 85, 1)" stroke-width="1.5"></path><path d="M207.38 759.43L207.38 759.43" stroke="rgba(7, 33, 85, 1)" stroke-width="1.5"></path><path d="M207.38 759.43L198.08 911.23" stroke="rgba(7, 33, 85, 1)" stroke-width="1.5"></path><path d="M207.38 759.43L357.84 712.19" stroke="rgba(7, 33, 85, 1)" stroke-width="1.5"></path><path d="M207.38 759.43L330.36 627.7" stroke="rgba(7, 33, 85, 1)" stroke-width="1.5"></path><path d="M198.08 911.23L198.08 911.23" stroke="rgba(7, 33, 85, 1)" stroke-width="1.5"></path><path d="M198.08 911.23L341.72 884.7" stroke="rgba(7, 33, 85, 1)" stroke-width="1.5"></path><path d="M320.76 463.09L320.76 463.09" stroke="rgba(7, 33, 85, 1)" stroke-width="1.5"></path><path d="M320.76 463.09L463.09 469.75" stroke="rgba(7, 33, 85, 1)" stroke-width="1.5"></path><path d="M320.76 463.09L330.36 627.7" stroke="rgba(7, 33, 85, 1)" stroke-width="1.5"></path><path d="M320.76 463.09L214.53 639.95" stroke="rgba(7, 33, 85, 1)" stroke-width="1.5"></path><path d="M320.76 463.09L495.6 585.05" stroke="rgba(7, 33, 85, 1)" stroke-width="1.5"></path><path d="M330.36 627.7L330.36 627.7" stroke="rgba(7, 33, 85, 1)" stroke-width="1.5"></path><path d="M330.36 627.7L357.84 712.19" stroke="rgba(7, 33, 85, 1)" stroke-width="1.5"></path><path d="M357.84 712.19L357.84 712.19" stroke="rgba(7, 33, 85, 1)" stroke-width="1.5"></path><path d="M357.84 712.19L504.72 753.91" stroke="rgba(7, 33, 85, 1)" stroke-width="1.5"></path><path d="M357.84 712.19L445.19 848.91" stroke="rgba(7, 33, 85, 1)" stroke-width="1.5"></path><path d="M357.84 712.19L341.72 884.7" stroke="rgba(7, 33, 85, 1)" stroke-width="1.5"></path><path d="M341.72 884.7L341.72 884.7" stroke="rgba(7, 33, 85, 1)" stroke-width="1.5"></path><path d="M341.72 884.7L445.19 848.91" stroke="rgba(7, 33, 85, 1)" stroke-width="1.5"></path><path d="M476.7 313.36L476.7 313.36" stroke="rgba(7, 33, 85, 1)" stroke-width="1.5"></path><path d="M476.7 313.36L599.95 327.17" stroke="rgba(7, 33, 85, 1)" stroke-width="1.5"></path><path d="M476.7 313.36L463.09 469.75" stroke="rgba(7, 33, 85, 1)" stroke-width="1.5"></path><path d="M476.7 313.36L628.96 170.36" stroke="rgba(7, 33, 85, 1)" stroke-width="1.5"></path><path d="M476.7 313.36L320.76 463.09" stroke="rgba(7, 33, 85, 1)" stroke-width="1.5"></path><path d="M476.7 313.36L495.6 585.05" stroke="rgba(7, 33, 85, 1)" stroke-width="1.5"></path><path d="M476.7 313.36L236.01 446.57" stroke="rgba(7, 33, 85, 1)" stroke-width="1.5"></path><path d="M463.09 469.75L463.09 469.75" stroke="rgba(7, 33, 85, 1)" stroke-width="1.5"></path><path d="M463.09 469.75L495.6 585.05" stroke="rgba(7, 33, 85, 1)" stroke-width="1.5"></path><path d="M463.09 469.75L602.56 606.36" stroke="rgba(7, 33, 85, 1)" stroke-width="1.5"></path><path d="M463.09 469.75L599.95 327.17" stroke="rgba(7, 33, 85, 1)" stroke-width="1.5"></path><path d="M495.6 585.05L495.6 585.05" stroke="rgba(7, 33, 85, 1)" stroke-width="1.5"></path><path d="M495.6 585.05L602.56 606.36" stroke="rgba(7, 33, 85, 1)" stroke-width="1.5"></path><path d="M495.6 585.05L504.72 753.91" stroke="rgba(7, 33, 85, 1)" stroke-width="1.5"></path><path d="M495.6 585.05L330.36 627.7" stroke="rgba(7, 33, 85, 1)" stroke-width="1.5"></path><path d="M495.6 585.05L357.84 712.19" stroke="rgba(7, 33, 85, 1)" stroke-width="1.5"></path><path d="M504.72 753.91L504.72 753.91" stroke="rgba(7, 33, 85, 1)" stroke-width="1.5"></path><path d="M504.72 753.91L445.19 848.91" stroke="rgba(7, 33, 85, 1)" stroke-width="1.5"></path><path d="M445.19 848.91L445.19 848.91" stroke="rgba(7, 33, 85, 1)" stroke-width="1.5"></path><path d="M445.19 848.91L575.77 905.08" stroke="rgba(7, 33, 85, 1)" stroke-width="1.5"></path><path d="M445.19 848.91L330.36 627.7" stroke="rgba(7, 33, 85, 1)" stroke-width="1.5"></path><path d="M628.96 170.36L628.96 170.36" stroke="rgba(7, 33, 85, 1)" stroke-width="1.5"></path><path d="M628.96 170.36L751.54 182.15" stroke="rgba(7, 33, 85, 1)" stroke-width="1.5"></path><path d="M628.96 170.36L724.3 82.06" stroke="rgba(7, 33, 85, 1)" stroke-width="1.5"></path><path d="M599.95 327.17L599.95 327.17" stroke="rgba(7, 33, 85, 1)" stroke-width="1.5"></path><path d="M599.95 327.17L628.96 170.36" stroke="rgba(7, 33, 85, 1)" stroke-width="1.5"></path><path d="M599.95 327.17L772.94 343.16" stroke="rgba(7, 33, 85, 1)" stroke-width="1.5"></path><path d="M602.56 606.36L602.56 606.36" stroke="rgba(7, 33, 85, 1)" stroke-width="1.5"></path><path d="M602.56 606.36L726 619.66" stroke="rgba(7, 33, 85, 1)" stroke-width="1.5"></path><path d="M602.56 606.36L709.88 714.19" stroke="rgba(7, 33, 85, 1)" stroke-width="1.5"></path><path d="M602.56 606.36L504.72 753.91" stroke="rgba(7, 33, 85, 1)" stroke-width="1.5"></path><path d="M575.77 905.08L575.77 905.08" stroke="rgba(7, 33, 85, 1)" stroke-width="1.5"></path><path d="M575.77 905.08L504.72 753.91" stroke="rgba(7, 33, 85, 1)" stroke-width="1.5"></path><path d="M767.43 -46.48L767.43 -46.48" stroke="rgba(7, 33, 85, 1)" stroke-width="1.5"></path><path d="M767.43 -46.48L724.3 82.06" stroke="rgba(7, 33, 85, 1)" stroke-width="1.5"></path><path d="M767.43 -46.48L865.92 61.64" stroke="rgba(7, 33, 85, 1)" stroke-width="1.5"></path><path d="M767.43 -46.48L751.54 182.15" stroke="rgba(7, 33, 85, 1)" stroke-width="1.5"></path><path d="M767.43 -46.48L858.96 181.46" stroke="rgba(7, 33, 85, 1)" stroke-width="1.5"></path><path d="M767.43 -46.48L991.32 70.23" stroke="rgba(7, 33, 85, 1)" stroke-width="1.5"></path><path d="M724.3 82.06L724.3 82.06" stroke="rgba(7, 33, 85, 1)" stroke-width="1.5"></path><path d="M724.3 82.06L751.54 182.15" stroke="rgba(7, 33, 85, 1)" stroke-width="1.5"></path><path d="M724.3 82.06L865.92 61.64" stroke="rgba(7, 33, 85, 1)" stroke-width="1.5"></path><path d="M724.3 82.06L858.96 181.46" stroke="rgba(7, 33, 85, 1)" stroke-width="1.5"></path><path d="M724.3 82.06L772.94 343.16" stroke="rgba(7, 33, 85, 1)" stroke-width="1.5"></path><path d="M751.54 182.15L751.54 182.15" stroke="rgba(7, 33, 85, 1)" stroke-width="1.5"></path><path d="M751.54 182.15L858.96 181.46" stroke="rgba(7, 33, 85, 1)" stroke-width="1.5"></path><path d="M751.54 182.15L772.94 343.16" stroke="rgba(7, 33, 85, 1)" stroke-width="1.5"></path><path d="M751.54 182.15L865.92 61.64" stroke="rgba(7, 33, 85, 1)" stroke-width="1.5"></path><path d="M751.54 182.15L599.95 327.17" stroke="rgba(7, 33, 85, 1)" stroke-width="1.5"></path><path d="M772.94 343.16L772.94 343.16" stroke="rgba(7, 33, 85, 1)" stroke-width="1.5"></path><path d="M772.94 343.16L867.52 364.45" stroke="rgba(7, 33, 85, 1)" stroke-width="1.5"></path><path d="M772.94 343.16L766.17 506.03" stroke="rgba(7, 33, 85, 1)" stroke-width="1.5"></path><path d="M772.94 343.16L858.96 181.46" stroke="rgba(7, 33, 85, 1)" stroke-width="1.5"></path><path d="M772.94 343.16L906.97 474.44" stroke="rgba(7, 33, 85, 1)" stroke-width="1.5"></path><path d="M766.17 506.03L766.17 506.03" stroke="rgba(7, 33, 85, 1)" stroke-width="1.5"></path><path d="M766.17 506.03L726 619.66" stroke="rgba(7, 33, 85, 1)" stroke-width="1.5"></path><path d="M766.17 506.03L906.97 474.44" stroke="rgba(7, 33, 85, 1)" stroke-width="1.5"></path><path d="M766.17 506.03L907.15 573.95" stroke="rgba(7, 33, 85, 1)" stroke-width="1.5"></path><path d="M726 619.66L726 619.66" stroke="rgba(7, 33, 85, 1)" stroke-width="1.5"></path><path d="M726 619.66L709.88 714.19" stroke="rgba(7, 33, 85, 1)" stroke-width="1.5"></path><path d="M726 619.66L907.15 573.95" stroke="rgba(7, 33, 85, 1)" stroke-width="1.5"></path><path d="M709.88 714.19L709.88 714.19" stroke="rgba(7, 33, 85, 1)" stroke-width="1.5"></path><path d="M865.92 61.64L865.92 61.64" stroke="rgba(7, 33, 85, 1)" stroke-width="1.5"></path><path d="M865.92 61.64L858.96 181.46" stroke="rgba(7, 33, 85, 1)" stroke-width="1.5"></path><path d="M865.92 61.64L991.32 70.23" stroke="rgba(7, 33, 85, 1)" stroke-width="1.5"></path><path d="M858.96 181.46L858.96 181.46" stroke="rgba(7, 33, 85, 1)" stroke-width="1.5"></path><path d="M867.52 364.45L867.52 364.45" stroke="rgba(7, 33, 85, 1)" stroke-width="1.5"></path><path d="M867.52 364.45L906.97 474.44" stroke="rgba(7, 33, 85, 1)" stroke-width="1.5"></path><path d="M906.97 474.44L906.97 474.44" stroke="rgba(7, 33, 85, 1)" stroke-width="1.5"></path><path d="M906.97 474.44L907.15 573.95" stroke="rgba(7, 33, 85, 1)" stroke-width="1.5"></path><path d="M907.15 573.95L907.15 573.95" stroke="rgba(7, 33, 85, 1)" stroke-width="1.5"></path><path d="M907.15 573.95L908.67 720.82" stroke="rgba(7, 33, 85, 1)" stroke-width="1.5"></path><path d="M907.15 573.95L1024.2 459.57" stroke="rgba(7, 33, 85, 1)" stroke-width="1.5"></path><path d="M908.67 720.82L908.67 720.82" stroke="rgba(7, 33, 85, 1)" stroke-width="1.5"></path><path d="M908.67 720.82L993.24 769.53" stroke="rgba(7, 33, 85, 1)" stroke-width="1.5"></path><path d="M871.61 867.41L871.61 867.41" stroke="rgba(7, 33, 85, 1)" stroke-width="1.5"></path><path d="M871.61 867.41L995.57 871.69" stroke="rgba(7, 33, 85, 1)" stroke-width="1.5"></path><path d="M871.61 867.41L908.67 720.82" stroke="rgba(7, 33, 85, 1)" stroke-width="1.5"></path><path d="M871.61 867.41L993.24 769.53" stroke="rgba(7, 33, 85, 1)" stroke-width="1.5"></path><path d="M871.61 867.41L709.88 714.19" stroke="rgba(7, 33, 85, 1)" stroke-width="1.5"></path><path d="M1028.55 -93.18L1028.55 -93.18" stroke="rgba(7, 33, 85, 1)" stroke-width="1.5"></path><path d="M1028.55 -93.18L1117.75 -52.16" stroke="rgba(7, 33, 85, 1)" stroke-width="1.5"></path><path d="M1028.55 -93.18L991.32 70.23" stroke="rgba(7, 33, 85, 1)" stroke-width="1.5"></path><path d="M1028.55 -93.18L1138.62 86.21" stroke="rgba(7, 33, 85, 1)" stroke-width="1.5"></path><path d="M1028.55 -93.18L865.92 61.64" stroke="rgba(7, 33, 85, 1)" stroke-width="1.5"></path><path d="M1028.55 -93.18L767.43 -46.48" stroke="rgba(7, 33, 85, 1)" stroke-width="1.5"></path><path d="M991.32 70.23L991.32 70.23" stroke="rgba(7, 33, 85, 1)" stroke-width="1.5"></path><path d="M1029.2 348.72L1029.2 348.72" stroke="rgba(7, 33, 85, 1)" stroke-width="1.5"></path><path d="M1029.2 348.72L1024.2 459.57" stroke="rgba(7, 33, 85, 1)" stroke-width="1.5"></path><path d="M1029.2 348.72L1164.94 308.71" stroke="rgba(7, 33, 85, 1)" stroke-width="1.5"></path><path d="M1029.2 348.72L867.52 364.45" stroke="rgba(7, 33, 85, 1)" stroke-width="1.5"></path><path d="M1029.2 348.72L906.97 474.44" stroke="rgba(7, 33, 85, 1)" stroke-width="1.5"></path><path d="M1029.2 348.72L1133.55 501.37" stroke="rgba(7, 33, 85, 1)" stroke-width="1.5"></path><path d="M1029.2 348.72L1123.9 187.9" stroke="rgba(7, 33, 85, 1)" stroke-width="1.5"></path><path d="M1024.2 459.57L1024.2 459.57" stroke="rgba(7, 33, 85, 1)" stroke-width="1.5"></path><path d="M1024.2 459.57L1133.55 501.37" stroke="rgba(7, 33, 85, 1)" stroke-width="1.5"></path><path d="M1024.2 459.57L906.97 474.44" stroke="rgba(7, 33, 85, 1)" stroke-width="1.5"></path><path d="M993.24 769.53L993.24 769.53" stroke="rgba(7, 33, 85, 1)" stroke-width="1.5"></path><path d="M993.24 769.53L995.57 871.69" stroke="rgba(7, 33, 85, 1)" stroke-width="1.5"></path><path d="M993.24 769.53L1133.1 723.3" stroke="rgba(7, 33, 85, 1)" stroke-width="1.5"></path><path d="M993.24 769.53L1136.18 856.15" stroke="rgba(7, 33, 85, 1)" stroke-width="1.5"></path><path d="M993.24 769.53L1118.66 623.06" stroke="rgba(7, 33, 85, 1)" stroke-width="1.5"></path><path d="M995.57 871.69L995.57 871.69" stroke="rgba(7, 33, 85, 1)" stroke-width="1.5"></path><path d="M995.57 871.69L1136.18 856.15" stroke="rgba(7, 33, 85, 1)" stroke-width="1.5"></path><path d="M995.57 871.69L908.67 720.82" stroke="rgba(7, 33, 85, 1)" stroke-width="1.5"></path><path d="M995.57 871.69L1133.1 723.3" stroke="rgba(7, 33, 85, 1)" stroke-width="1.5"></path><path d="M1117.75 -52.16L1117.75 -52.16" stroke="rgba(7, 33, 85, 1)" stroke-width="1.5"></path><path d="M1117.75 -52.16L1138.62 86.21" stroke="rgba(7, 33, 85, 1)" stroke-width="1.5"></path><path d="M1117.75 -52.16L991.32 70.23" stroke="rgba(7, 33, 85, 1)" stroke-width="1.5"></path><path d="M1117.75 -52.16L1123.9 187.9" stroke="rgba(7, 33, 85, 1)" stroke-width="1.5"></path><path d="M1117.75 -52.16L865.92 61.64" stroke="rgba(7, 33, 85, 1)" stroke-width="1.5"></path><path d="M1117.75 -52.16L858.96 181.46" stroke="rgba(7, 33, 85, 1)" stroke-width="1.5"></path><path d="M1138.62 86.21L1138.62 86.21" stroke="rgba(7, 33, 85, 1)" stroke-width="1.5"></path><path d="M1138.62 86.21L1123.9 187.9" stroke="rgba(7, 33, 85, 1)" stroke-width="1.5"></path><path d="M1138.62 86.21L991.32 70.23" stroke="rgba(7, 33, 85, 1)" stroke-width="1.5"></path><path d="M1123.9 187.9L1123.9 187.9" stroke="rgba(7, 33, 85, 1)" stroke-width="1.5"></path><path d="M1123.9 187.9L1164.94 308.71" stroke="rgba(7, 33, 85, 1)" stroke-width="1.5"></path><path d="M1164.94 308.71L1164.94 308.71" stroke="rgba(7, 33, 85, 1)" stroke-width="1.5"></path><path d="M1164.94 308.71L1133.55 501.37" stroke="rgba(7, 33, 85, 1)" stroke-width="1.5"></path><path d="M1164.94 308.71L1024.2 459.57" stroke="rgba(7, 33, 85, 1)" stroke-width="1.5"></path><path d="M1164.94 308.71L1138.62 86.21" stroke="rgba(7, 33, 85, 1)" stroke-width="1.5"></path><path d="M1164.94 308.71L991.32 70.23" stroke="rgba(7, 33, 85, 1)" stroke-width="1.5"></path><path d="M1133.55 501.37L1133.55 501.37" stroke="rgba(7, 33, 85, 1)" stroke-width="1.5"></path><path d="M1133.55 501.37L1118.66 623.06" stroke="rgba(7, 33, 85, 1)" stroke-width="1.5"></path><path d="M1118.66 623.06L1118.66 623.06" stroke="rgba(7, 33, 85, 1)" stroke-width="1.5"></path><path d="M1118.66 623.06L1133.1 723.3" stroke="rgba(7, 33, 85, 1)" stroke-width="1.5"></path><path d="M1118.66 623.06L1024.2 459.57" stroke="rgba(7, 33, 85, 1)" stroke-width="1.5"></path><path d="M1133.1 723.3L1133.1 723.3" stroke="rgba(7, 33, 85, 1)" stroke-width="1.5"></path><path d="M1133.1 723.3L1136.18 856.15" stroke="rgba(7, 33, 85, 1)" stroke-width="1.5"></path><path d="M1136.18 856.15L1136.18 856.15" stroke="rgba(7, 33, 85, 1)" stroke-width="1.5"></path><path d="M1136.18 856.15L1118.66 623.06" stroke="rgba(7, 33, 85, 1)" stroke-width="1.5"></path><circle r="5" cx="-51.95" cy="450.98" fill="rgba(7, 33, 85, 1)"></circle><circle r="5" cx="-89.91" cy="637.95" fill="rgba(7, 33, 85, 1)"></circle><circle r="5" cx="-57.64" cy="715.6" fill="rgba(7, 33, 85, 1)"></circle><circle r="5" cx="-53.02" cy="904.59" fill="rgba(7, 33, 85, 1)"></circle><circle r="5" cx="84.98" cy="494.06" fill="rgba(7, 33, 85, 1)"></circle><circle r="5" cx="93.42" cy="623.89" fill="rgba(7, 33, 85, 1)"></circle><circle r="5" cx="75.07" cy="713.13" fill="rgba(7, 33, 85, 1)"></circle><circle r="5" cx="53.56" cy="876.46" fill="rgba(7, 33, 85, 1)"></circle><circle r="5" cx="236.01" cy="446.57" fill="rgba(7, 33, 85, 1)"></circle><circle r="5" cx="214.53" cy="639.95" fill="rgba(7, 33, 85, 1)"></circle><circle r="5" cx="207.38" cy="759.43" fill="rgba(7, 33, 85, 1)"></circle><circle r="5" cx="198.08" cy="911.23" fill="rgba(7, 33, 85, 1)"></circle><circle r="5" cx="320.76" cy="463.09" fill="rgba(7, 33, 85, 1)"></circle><circle r="5" cx="330.36" cy="627.7" fill="rgba(7, 33, 85, 1)"></circle><circle r="5" cx="357.84" cy="712.19" fill="rgba(7, 33, 85, 1)"></circle><circle r="5" cx="341.72" cy="884.7" fill="rgba(7, 33, 85, 1)"></circle><circle r="5" cx="476.7" cy="313.36" fill="rgba(7, 33, 85, 1)"></circle><circle r="5" cx="463.09" cy="469.75" fill="rgba(7, 33, 85, 1)"></circle><circle r="5" cx="495.6" cy="585.05" fill="rgba(7, 33, 85, 1)"></circle><circle r="5" cx="504.72" cy="753.91" fill="rgba(7, 33, 85, 1)"></circle><circle r="5" cx="445.19" cy="848.91" fill="rgba(7, 33, 85, 1)"></circle><circle r="5" cx="628.96" cy="170.36" fill="rgba(7, 33, 85, 1)"></circle><circle r="5" cx="599.95" cy="327.17" fill="rgba(7, 33, 85, 1)"></circle><circle r="5" cx="602.56" cy="606.36" fill="rgba(7, 33, 85, 1)"></circle><circle r="5" cx="575.77" cy="905.08" fill="rgba(7, 33, 85, 1)"></circle><circle r="5" cx="767.43" cy="-46.48" fill="rgba(7, 33, 85, 1)"></circle><circle r="5" cx="724.3" cy="82.06" fill="rgba(7, 33, 85, 1)"></circle><circle r="5" cx="751.54" cy="182.15" fill="rgba(7, 33, 85, 1)"></circle><circle r="5" cx="772.94" cy="343.16" fill="rgba(7, 33, 85, 1)"></circle><circle r="5" cx="766.17" cy="506.03" fill="rgba(7, 33, 85, 1)"></circle><circle r="5" cx="726" cy="619.66" fill="rgba(7, 33, 85, 1)"></circle><circle r="5" cx="709.88" cy="714.19" fill="rgba(7, 33, 85, 1)"></circle><circle r="5" cx="865.92" cy="61.64" fill="rgba(7, 33, 85, 1)"></circle><circle r="5" cx="858.96" cy="181.46" fill="rgba(7, 33, 85, 1)"></circle><circle r="5" cx="867.52" cy="364.45" fill="rgba(7, 33, 85, 1)"></circle><circle r="5" cx="906.97" cy="474.44" fill="rgba(7, 33, 85, 1)"></circle><circle r="5" cx="907.15" cy="573.95" fill="rgba(7, 33, 85, 1)"></circle><circle r="5" cx="908.67" cy="720.82" fill="rgba(7, 33, 85, 1)"></circle><circle r="5" cx="871.61" cy="867.41" fill="rgba(7, 33, 85, 1)"></circle><circle r="5" cx="1028.55" cy="-93.18" fill="rgba(7, 33, 85, 1)"></circle><circle r="5" cx="991.32" cy="70.23" fill="rgba(7, 33, 85, 1)"></circle><circle r="5" cx="1029.2" cy="348.72" fill="rgba(7, 33, 85, 1)"></circle><circle r="5" cx="1024.2" cy="459.57" fill="rgba(7, 33, 85, 1)"></circle><circle r="5" cx="993.24" cy="769.53" fill="rgba(7, 33, 85, 1)"></circle><circle r="5" cx="995.57" cy="871.69" fill="rgba(7, 33, 85, 1)"></circle><circle r="5" cx="1117.75" cy="-52.16" fill="rgba(7, 33, 85, 1)"></circle><circle r="5" cx="1138.62" cy="86.21" fill="rgba(7, 33, 85, 1)"></circle><circle r="5" cx="1123.9" cy="187.9" fill="rgba(7, 33, 85, 1)"></circle><circle r="5" cx="1164.94" cy="308.71" fill="rgba(7, 33, 85, 1)"></circle><circle r="5" cx="1133.55" cy="501.37" fill="rgba(7, 33, 85, 1)"></circle><circle r="5" cx="1118.66" cy="623.06" fill="rgba(7, 33, 85, 1)"></circle><circle r="5" cx="1133.1" cy="723.3" fill="rgba(7, 33, 85, 1)"></circle><circle r="5" cx="1136.18" cy="856.15" fill="rgba(7, 33, 85, 1)"></circle><path d="M63.22 717.96L63.22 717.96" stroke="hsl(228.5, 77.2%, 51.5%)" stroke-width="1.5"></path><path d="M63.22 717.96L85.94 608.03" stroke="hsl(228.5, 77.2%, 51.5%)" stroke-width="1.5"></path><path d="M63.22 717.96L180 746.81" stroke="hsl(228.5, 77.2%, 51.5%)" stroke-width="1.5"></path><path d="M220.93 852.3L220.93 852.3" stroke="hsl(228.5, 77.2%, 51.5%)" stroke-width="1.5"></path><path d="M220.93 852.3L180 746.81" stroke="hsl(228.5, 77.2%, 51.5%)" stroke-width="1.5"></path><path d="M220.93 852.3L330.59 756.14" stroke="hsl(228.5, 77.2%, 51.5%)" stroke-width="1.5"></path><path d="M220.93 852.3L364.74 893.29" stroke="hsl(228.5, 77.2%, 51.5%)" stroke-width="1.5"></path><path d="M220.93 852.3L63.22 717.96" stroke="hsl(228.5, 77.2%, 51.5%)" stroke-width="1.5"></path><path d="M495.17 608.1L495.17 608.1" stroke="hsl(228.5, 77.2%, 51.5%)" stroke-width="1.5"></path><path d="M495.17 608.1L620.4 632.86" stroke="hsl(228.5, 77.2%, 51.5%)" stroke-width="1.5"></path><path d="M495.17 608.1L600.91 472.65" stroke="hsl(228.5, 77.2%, 51.5%)" stroke-width="1.5"></path><path d="M620.4 632.86L620.4 632.86" stroke="hsl(228.5, 77.2%, 51.5%)" stroke-width="1.5"></path><path d="M620.4 632.86L738.5 611.05" stroke="hsl(228.5, 77.2%, 51.5%)" stroke-width="1.5"></path><path d="M620.4 632.86L600.91 472.65" stroke="hsl(228.5, 77.2%, 51.5%)" stroke-width="1.5"></path><path d="M620.4 632.86L714.26 490.84" stroke="hsl(228.5, 77.2%, 51.5%)" stroke-width="1.5"></path><path d="M620.4 632.86L853.74 611.02" stroke="hsl(228.5, 77.2%, 51.5%)" stroke-width="1.5"></path><path d="M1175.32 607.68L1175.32 607.68" stroke="hsl(228.5, 77.2%, 51.5%)" stroke-width="1.5"></path><path d="M1175.32 607.68L1127.35 708.92" stroke="hsl(228.5, 77.2%, 51.5%)" stroke-width="1.5"></path><path d="M1175.32 607.68L1143.87 478.78" stroke="hsl(228.5, 77.2%, 51.5%)" stroke-width="1.5"></path><path d="M1175.32 607.68L1013.19 574.92" stroke="hsl(228.5, 77.2%, 51.5%)" stroke-width="1.5"></path><path d="M1175.32 607.68L1026.46 496.05" stroke="hsl(228.5, 77.2%, 51.5%)" stroke-width="1.5"></path><path d="M1175.32 607.68L1009.11 746.43" stroke="hsl(228.5, 77.2%, 51.5%)" stroke-width="1.5"></path><path d="M1175.32 607.68L1114.16 318.96" stroke="hsl(228.5, 77.2%, 51.5%)" stroke-width="1.5"></path><path d="M-58.98 607.03L-58.98 607.03" stroke="hsl(228.5, 77.2%, 51.5%)" stroke-width="1.5"></path><path d="M-58.98 607.03L85.94 608.03" stroke="hsl(228.5, 77.2%, 51.5%)" stroke-width="1.5"></path><path d="M-58.98 607.03L-89.31 767.79" stroke="hsl(228.5, 77.2%, 51.5%)" stroke-width="1.5"></path><path d="M-58.98 607.03L63.22 717.96" stroke="hsl(228.5, 77.2%, 51.5%)" stroke-width="1.5"></path><path d="M-89.31 767.79L-89.31 767.79" stroke="hsl(228.5, 77.2%, 51.5%)" stroke-width="1.5"></path><path d="M-89.31 767.79L-97.33 901.33" stroke="hsl(228.5, 77.2%, 51.5%)" stroke-width="1.5"></path><path d="M-89.31 767.79L63.22 717.96" stroke="hsl(228.5, 77.2%, 51.5%)" stroke-width="1.5"></path><path d="M-89.31 767.79L85.94 608.03" stroke="hsl(228.5, 77.2%, 51.5%)" stroke-width="1.5"></path><path d="M-97.33 901.33L-97.33 901.33" stroke="hsl(228.5, 77.2%, 51.5%)" stroke-width="1.5"></path><path d="M-97.33 901.33L63.22 717.96" stroke="hsl(228.5, 77.2%, 51.5%)" stroke-width="1.5"></path><path d="M-97.33 901.33L-58.98 607.03" stroke="hsl(228.5, 77.2%, 51.5%)" stroke-width="1.5"></path><path d="M-97.33 901.33L180 746.81" stroke="hsl(228.5, 77.2%, 51.5%)" stroke-width="1.5"></path><path d="M-97.33 901.33L220.93 852.3" stroke="hsl(228.5, 77.2%, 51.5%)" stroke-width="1.5"></path><path d="M-97.33 901.33L85.94 608.03" stroke="hsl(228.5, 77.2%, 51.5%)" stroke-width="1.5"></path><path d="M85.94 608.03L85.94 608.03" stroke="hsl(228.5, 77.2%, 51.5%)" stroke-width="1.5"></path><path d="M85.94 608.03L180 746.81" stroke="hsl(228.5, 77.2%, 51.5%)" stroke-width="1.5"></path><path d="M180 746.81L180 746.81" stroke="hsl(228.5, 77.2%, 51.5%)" stroke-width="1.5"></path><path d="M306.81 607.31L306.81 607.31" stroke="hsl(228.5, 77.2%, 51.5%)" stroke-width="1.5"></path><path d="M306.81 607.31L330.59 756.14" stroke="hsl(228.5, 77.2%, 51.5%)" stroke-width="1.5"></path><path d="M306.81 607.31L495.17 608.1" stroke="hsl(228.5, 77.2%, 51.5%)" stroke-width="1.5"></path><path d="M306.81 607.31L180 746.81" stroke="hsl(228.5, 77.2%, 51.5%)" stroke-width="1.5"></path><path d="M306.81 607.31L85.94 608.03" stroke="hsl(228.5, 77.2%, 51.5%)" stroke-width="1.5"></path><path d="M306.81 607.31L220.93 852.3" stroke="hsl(228.5, 77.2%, 51.5%)" stroke-width="1.5"></path><path d="M330.59 756.14L330.59 756.14" stroke="hsl(228.5, 77.2%, 51.5%)" stroke-width="1.5"></path><path d="M330.59 756.14L364.74 893.29" stroke="hsl(228.5, 77.2%, 51.5%)" stroke-width="1.5"></path><path d="M330.59 756.14L180 746.81" stroke="hsl(228.5, 77.2%, 51.5%)" stroke-width="1.5"></path><path d="M330.59 756.14L465.87 855.78" stroke="hsl(228.5, 77.2%, 51.5%)" stroke-width="1.5"></path><path d="M364.74 893.29L364.74 893.29" stroke="hsl(228.5, 77.2%, 51.5%)" stroke-width="1.5"></path><path d="M364.74 893.29L465.87 855.78" stroke="hsl(228.5, 77.2%, 51.5%)" stroke-width="1.5"></path><path d="M364.74 893.29L574.58 889.31" stroke="hsl(228.5, 77.2%, 51.5%)" stroke-width="1.5"></path><path d="M364.74 893.29L180 746.81" stroke="hsl(228.5, 77.2%, 51.5%)" stroke-width="1.5"></path><path d="M364.74 893.29L306.81 607.31" stroke="hsl(228.5, 77.2%, 51.5%)" stroke-width="1.5"></path><path d="M465.87 855.78L465.87 855.78" stroke="hsl(228.5, 77.2%, 51.5%)" stroke-width="1.5"></path><path d="M465.87 855.78L574.58 889.31" stroke="hsl(228.5, 77.2%, 51.5%)" stroke-width="1.5"></path><path d="M465.87 855.78L220.93 852.3" stroke="hsl(228.5, 77.2%, 51.5%)" stroke-width="1.5"></path><path d="M465.87 855.78L495.17 608.1" stroke="hsl(228.5, 77.2%, 51.5%)" stroke-width="1.5"></path><path d="M600.91 472.65L600.91 472.65" stroke="hsl(228.5, 77.2%, 51.5%)" stroke-width="1.5"></path><path d="M600.91 472.65L714.26 490.84" stroke="hsl(228.5, 77.2%, 51.5%)" stroke-width="1.5"></path><path d="M574.58 889.31L574.58 889.31" stroke="hsl(228.5, 77.2%, 51.5%)" stroke-width="1.5"></path><path d="M574.58 889.31L722.96 887.89" stroke="hsl(228.5, 77.2%, 51.5%)" stroke-width="1.5"></path><path d="M574.58 889.31L620.4 632.86" stroke="hsl(228.5, 77.2%, 51.5%)" stroke-width="1.5"></path><path d="M574.58 889.31L330.59 756.14" stroke="hsl(228.5, 77.2%, 51.5%)" stroke-width="1.5"></path><path d="M574.58 889.31L860.55 894.04" stroke="hsl(228.5, 77.2%, 51.5%)" stroke-width="1.5"></path><path d="M714.26 490.84L714.26 490.84" stroke="hsl(228.5, 77.2%, 51.5%)" stroke-width="1.5"></path><path d="M714.26 490.84L738.5 611.05" stroke="hsl(228.5, 77.2%, 51.5%)" stroke-width="1.5"></path><path d="M738.5 611.05L738.5 611.05" stroke="hsl(228.5, 77.2%, 51.5%)" stroke-width="1.5"></path><path d="M738.5 611.05L853.74 611.02" stroke="hsl(228.5, 77.2%, 51.5%)" stroke-width="1.5"></path><path d="M722.96 887.89L722.96 887.89" stroke="hsl(228.5, 77.2%, 51.5%)" stroke-width="1.5"></path><path d="M722.96 887.89L860.55 894.04" stroke="hsl(228.5, 77.2%, 51.5%)" stroke-width="1.5"></path><path d="M722.96 887.89L861.35 715.73" stroke="hsl(228.5, 77.2%, 51.5%)" stroke-width="1.5"></path><path d="M722.96 887.89L465.87 855.78" stroke="hsl(228.5, 77.2%, 51.5%)" stroke-width="1.5"></path><path d="M904.59 -43.07L904.59 -43.07" stroke="hsl(228.5, 77.2%, 51.5%)" stroke-width="1.5"></path><path d="M904.59 -43.07L1032.23 -68.2" stroke="hsl(228.5, 77.2%, 51.5%)" stroke-width="1.5"></path><path d="M904.59 -43.07L1037.91 71.94" stroke="hsl(228.5, 77.2%, 51.5%)" stroke-width="1.5"></path><path d="M904.59 -43.07L893.88 186.56" stroke="hsl(228.5, 77.2%, 51.5%)" stroke-width="1.5"></path><path d="M893.88 186.56L893.88 186.56" stroke="hsl(228.5, 77.2%, 51.5%)" stroke-width="1.5"></path><path d="M893.88 186.56L1020.27 174.57" stroke="hsl(228.5, 77.2%, 51.5%)" stroke-width="1.5"></path><path d="M893.88 186.56L849.04 323.43" stroke="hsl(228.5, 77.2%, 51.5%)" stroke-width="1.5"></path><path d="M893.88 186.56L999.78 325.87" stroke="hsl(228.5, 77.2%, 51.5%)" stroke-width="1.5"></path><path d="M893.88 186.56L1037.91 71.94" stroke="hsl(228.5, 77.2%, 51.5%)" stroke-width="1.5"></path><path d="M849.04 323.43L849.04 323.43" stroke="hsl(228.5, 77.2%, 51.5%)" stroke-width="1.5"></path><path d="M849.04 323.43L870.58 454.17" stroke="hsl(228.5, 77.2%, 51.5%)" stroke-width="1.5"></path><path d="M849.04 323.43L999.78 325.87" stroke="hsl(228.5, 77.2%, 51.5%)" stroke-width="1.5"></path><path d="M849.04 323.43L714.26 490.84" stroke="hsl(228.5, 77.2%, 51.5%)" stroke-width="1.5"></path><path d="M849.04 323.43L1020.27 174.57" stroke="hsl(228.5, 77.2%, 51.5%)" stroke-width="1.5"></path><path d="M870.58 454.17L870.58 454.17" stroke="hsl(228.5, 77.2%, 51.5%)" stroke-width="1.5"></path><path d="M870.58 454.17L853.74 611.02" stroke="hsl(228.5, 77.2%, 51.5%)" stroke-width="1.5"></path><path d="M853.74 611.02L853.74 611.02" stroke="hsl(228.5, 77.2%, 51.5%)" stroke-width="1.5"></path><path d="M853.74 611.02L861.35 715.73" stroke="hsl(228.5, 77.2%, 51.5%)" stroke-width="1.5"></path><path d="M861.35 715.73L861.35 715.73" stroke="hsl(228.5, 77.2%, 51.5%)" stroke-width="1.5"></path><path d="M861.35 715.73L1009.11 746.43" stroke="hsl(228.5, 77.2%, 51.5%)" stroke-width="1.5"></path><path d="M861.35 715.73L738.5 611.05" stroke="hsl(228.5, 77.2%, 51.5%)" stroke-width="1.5"></path><path d="M861.35 715.73L860.55 894.04" stroke="hsl(228.5, 77.2%, 51.5%)" stroke-width="1.5"></path><path d="M861.35 715.73L1013.19 574.92" stroke="hsl(228.5, 77.2%, 51.5%)" stroke-width="1.5"></path><path d="M860.55 894.04L860.55 894.04" stroke="hsl(228.5, 77.2%, 51.5%)" stroke-width="1.5"></path><path d="M860.55 894.04L1018.51 877.83" stroke="hsl(228.5, 77.2%, 51.5%)" stroke-width="1.5"></path><path d="M1032.23 -68.2L1032.23 -68.2" stroke="hsl(228.5, 77.2%, 51.5%)" stroke-width="1.5"></path><path d="M1032.23 -68.2L1147.16 -96.22" stroke="hsl(228.5, 77.2%, 51.5%)" stroke-width="1.5"></path><path d="M1037.91 71.94L1037.91 71.94" stroke="hsl(228.5, 77.2%, 51.5%)" stroke-width="1.5"></path><path d="M1037.91 71.94L1116.52 72.36" stroke="hsl(228.5, 77.2%, 51.5%)" stroke-width="1.5"></path><path d="M1037.91 71.94L1020.27 174.57" stroke="hsl(228.5, 77.2%, 51.5%)" stroke-width="1.5"></path><path d="M1037.91 71.94L1032.23 -68.2" stroke="hsl(228.5, 77.2%, 51.5%)" stroke-width="1.5"></path><path d="M1020.27 174.57L1020.27 174.57" stroke="hsl(228.5, 77.2%, 51.5%)" stroke-width="1.5"></path><path d="M1020.27 174.57L1116.52 72.36" stroke="hsl(228.5, 77.2%, 51.5%)" stroke-width="1.5"></path><path d="M999.78 325.87L999.78 325.87" stroke="hsl(228.5, 77.2%, 51.5%)" stroke-width="1.5"></path><path d="M999.78 325.87L1114.16 318.96" stroke="hsl(228.5, 77.2%, 51.5%)" stroke-width="1.5"></path><path d="M1026.46 496.05L1026.46 496.05" stroke="hsl(228.5, 77.2%, 51.5%)" stroke-width="1.5"></path><path d="M1026.46 496.05L1013.19 574.92" stroke="hsl(228.5, 77.2%, 51.5%)" stroke-width="1.5"></path><path d="M1026.46 496.05L1143.87 478.78" stroke="hsl(228.5, 77.2%, 51.5%)" stroke-width="1.5"></path><path d="M1026.46 496.05L870.58 454.17" stroke="hsl(228.5, 77.2%, 51.5%)" stroke-width="1.5"></path><path d="M1026.46 496.05L999.78 325.87" stroke="hsl(228.5, 77.2%, 51.5%)" stroke-width="1.5"></path><path d="M1013.19 574.92L1013.19 574.92" stroke="hsl(228.5, 77.2%, 51.5%)" stroke-width="1.5"></path><path d="M1013.19 574.92L1143.87 478.78" stroke="hsl(228.5, 77.2%, 51.5%)" stroke-width="1.5"></path><path d="M1013.19 574.92L853.74 611.02" stroke="hsl(228.5, 77.2%, 51.5%)" stroke-width="1.5"></path><path d="M1013.19 574.92L1009.11 746.43" stroke="hsl(228.5, 77.2%, 51.5%)" stroke-width="1.5"></path><path d="M1013.19 574.92L1127.35 708.92" stroke="hsl(228.5, 77.2%, 51.5%)" stroke-width="1.5"></path><path d="M1009.11 746.43L1009.11 746.43" stroke="hsl(228.5, 77.2%, 51.5%)" stroke-width="1.5"></path><path d="M1009.11 746.43L1127.35 708.92" stroke="hsl(228.5, 77.2%, 51.5%)" stroke-width="1.5"></path><path d="M1009.11 746.43L1018.51 877.83" stroke="hsl(228.5, 77.2%, 51.5%)" stroke-width="1.5"></path><path d="M1018.51 877.83L1018.51 877.83" stroke="hsl(228.5, 77.2%, 51.5%)" stroke-width="1.5"></path><path d="M1018.51 877.83L1158.4 908.57" stroke="hsl(228.5, 77.2%, 51.5%)" stroke-width="1.5"></path><path d="M1147.16 -96.22L1147.16 -96.22" stroke="hsl(228.5, 77.2%, 51.5%)" stroke-width="1.5"></path><path d="M1147.16 -96.22L1116.52 72.36" stroke="hsl(228.5, 77.2%, 51.5%)" stroke-width="1.5"></path><path d="M1116.52 72.36L1116.52 72.36" stroke="hsl(228.5, 77.2%, 51.5%)" stroke-width="1.5"></path><path d="M1116.52 72.36L1032.23 -68.2" stroke="hsl(228.5, 77.2%, 51.5%)" stroke-width="1.5"></path><path d="M1116.52 72.36L1161.86 235.99" stroke="hsl(228.5, 77.2%, 51.5%)" stroke-width="1.5"></path><path d="M1161.86 235.99L1161.86 235.99" stroke="hsl(228.5, 77.2%, 51.5%)" stroke-width="1.5"></path><path d="M1161.86 235.99L1114.16 318.96" stroke="hsl(228.5, 77.2%, 51.5%)" stroke-width="1.5"></path><path d="M1161.86 235.99L1020.27 174.57" stroke="hsl(228.5, 77.2%, 51.5%)" stroke-width="1.5"></path><path d="M1161.86 235.99L999.78 325.87" stroke="hsl(228.5, 77.2%, 51.5%)" stroke-width="1.5"></path><path d="M1161.86 235.99L1037.91 71.94" stroke="hsl(228.5, 77.2%, 51.5%)" stroke-width="1.5"></path><path d="M1161.86 235.99L1143.87 478.78" stroke="hsl(228.5, 77.2%, 51.5%)" stroke-width="1.5"></path><path d="M1114.16 318.96L1114.16 318.96" stroke="hsl(228.5, 77.2%, 51.5%)" stroke-width="1.5"></path><path d="M1114.16 318.96L1143.87 478.78" stroke="hsl(228.5, 77.2%, 51.5%)" stroke-width="1.5"></path><path d="M1114.16 318.96L1020.27 174.57" stroke="hsl(228.5, 77.2%, 51.5%)" stroke-width="1.5"></path><path d="M1114.16 318.96L1026.46 496.05" stroke="hsl(228.5, 77.2%, 51.5%)" stroke-width="1.5"></path><path d="M1143.87 478.78L1143.87 478.78" stroke="hsl(228.5, 77.2%, 51.5%)" stroke-width="1.5"></path><path d="M1127.35 708.92L1127.35 708.92" stroke="hsl(228.5, 77.2%, 51.5%)" stroke-width="1.5"></path><path d="M1127.35 708.92L1018.51 877.83" stroke="hsl(228.5, 77.2%, 51.5%)" stroke-width="1.5"></path><path d="M1158.4 908.57L1158.4 908.57" stroke="hsl(228.5, 77.2%, 51.5%)" stroke-width="1.5"></path><path d="M1158.4 908.57L1127.35 708.92" stroke="hsl(228.5, 77.2%, 51.5%)" stroke-width="1.5"></path><path d="M1158.4 908.57L1009.11 746.43" stroke="hsl(228.5, 77.2%, 51.5%)" stroke-width="1.5"></path><path d="M1158.4 908.57L860.55 894.04" stroke="hsl(228.5, 77.2%, 51.5%)" stroke-width="1.5"></path><circle r="25" cx="63.22" cy="717.96" fill="url(#SvgjsRadialGradient1941)"></circle><circle r="25" cx="220.93" cy="852.3" fill="url(#SvgjsRadialGradient1941)"></circle><circle r="25" cx="495.17" cy="608.1" fill="url(#SvgjsRadialGradient1941)"></circle><circle r="25" cx="620.4" cy="632.86" fill="url(#SvgjsRadialGradient1941)"></circle><circle r="25" cx="1175.32" cy="607.68" fill="url(#SvgjsRadialGradient1941)"></circle><circle r="5" cx="-58.98" cy="607.03" fill="#8b9ad9"></circle><circle r="5" cx="-89.31" cy="767.79" fill="#8b9ad9"></circle><circle r="5" cx="-97.33" cy="901.33" fill="#8b9ad9"></circle><circle r="5" cx="85.94" cy="608.03" fill="#8b9ad9"></circle><circle r="5" cx="180" cy="746.81" fill="#8b9ad9"></circle><circle r="5" cx="306.81" cy="607.31" fill="#8b9ad9"></circle><circle r="5" cx="330.59" cy="756.14" fill="#8b9ad9"></circle><circle r="5" cx="364.74" cy="893.29" fill="#8b9ad9"></circle><circle r="5" cx="465.87" cy="855.78" fill="#8b9ad9"></circle><circle r="5" cx="600.91" cy="472.65" fill="#8b9ad9"></circle><circle r="5" cx="574.58" cy="889.31" fill="#8b9ad9"></circle><circle r="5" cx="714.26" cy="490.84" fill="#8b9ad9"></circle><circle r="5" cx="738.5" cy="611.05" fill="#8b9ad9"></circle><circle r="5" cx="722.96" cy="887.89" fill="#8b9ad9"></circle><circle r="5" cx="904.59" cy="-43.07" fill="#8b9ad9"></circle><circle r="5" cx="893.88" cy="186.56" fill="#8b9ad9"></circle><circle r="5" cx="849.04" cy="323.43" fill="#8b9ad9"></circle><circle r="5" cx="870.58" cy="454.17" fill="#8b9ad9"></circle><circle r="5" cx="853.74" cy="611.02" fill="#8b9ad9"></circle><circle r="5" cx="861.35" cy="715.73" fill="#8b9ad9"></circle><circle r="5" cx="860.55" cy="894.04" fill="#8b9ad9"></circle><circle r="5" cx="1032.23" cy="-68.2" fill="#8b9ad9"></circle><circle r="5" cx="1037.91" cy="71.94" fill="#8b9ad9"></circle><circle r="5" cx="1020.27" cy="174.57" fill="#8b9ad9"></circle><circle r="5" cx="999.78" cy="325.87" fill="#8b9ad9"></circle><circle r="5" cx="1026.46" cy="496.05" fill="#8b9ad9"></circle><circle r="5" cx="1013.19" cy="574.92" fill="#8b9ad9"></circle><circle r="5" cx="1009.11" cy="746.43" fill="#8b9ad9"></circle><circle r="5" cx="1018.51" cy="877.83" fill="#8b9ad9"></circle><circle r="5" cx="1147.16" cy="-96.22" fill="#8b9ad9"></circle><circle r="5" cx="1116.52" cy="72.36" fill="#8b9ad9"></circle><circle r="5" cx="1161.86" cy="235.99" fill="#8b9ad9"></circle><circle r="5" cx="1114.16" cy="318.96" fill="#8b9ad9"></circle><circle r="5" cx="1143.87" cy="478.78" fill="#8b9ad9"></circle><circle r="5" cx="1127.35" cy="708.92" fill="#8b9ad9"></circle><circle r="5" cx="1158.4" cy="908.57" fill="#8b9ad9"></circle></g><defs><mask id="SvgjsMask1939"><rect width="1080" height="720" fill="#ffffff"></rect></mask><linearGradient x1="8.33%" y1="-12.5%" x2="91.67%" y2="112.5%" gradientUnits="userSpaceOnUse" id="SvgjsLinearGradient1940"><stop stop-color="#0e2a47" offset="0"></stop><stop stop-color="rgba(13, 75, 147, 0.93)" offset="1"></stop></linearGradient><radialGradient id="SvgjsRadialGradient1941"><stop stop-color="#ffffff" offset="0.1"></stop><stop stop-color="#1735b3" offset="0.2"></stop><stop stop-color="rgba(23, 53, 179, 0)" offset="1"></stop></radialGradient></defs></svg>