<svg version="1.1" viewBox="0.0 0.0 960.0 720.0" fill="none" stroke="none" stroke-linecap="square" stroke-miterlimit="10" xmlns:xlink="http://www.w3.org/1999/xlink" xmlns="http://www.w3.org/2000/svg"><clipPath id="p.0"><path d="m0 0l960.0 0l0 720.0l-960.0 0l0 -720.0z" clip-rule="nonzero"/></clipPath><g clip-path="url(#p.0)"><path fill="#000000" fill-opacity="0.0" d="m0 0l960.0 0l0 720.0l-960.0 0z" fill-rule="evenodd"/><path fill="#6aa84f" d="m242.70341 210.47769l0 0c0 -9.167053 7.4948273 -16.59842 16.740158 -16.59842l0 0c4.4397583 0 8.697693 1.7487488 11.837067 4.861557c3.1394043 3.1128082 4.903076 7.3346863 4.903076 11.736862l0 0c0 9.167053 -7.494812 16.59842 -16.740143 16.59842l0 0c-9.245331 0 -16.740158 -7.431366 -16.740158 -16.59842z" fill-rule="evenodd"/><path stroke="#6aa84f" stroke-width="1.0" stroke-linejoin="round" stroke-linecap="butt" d="m242.70341 210.47769l0 0c0 -9.167053 7.4948273 -16.59842 16.740158 -16.59842l0 0c4.4397583 0 8.697693 1.7487488 11.837067 4.861557c3.1394043 3.1128082 4.903076 7.3346863 4.903076 11.736862l0 0c0 9.167053 -7.494812 16.59842 -16.740143 16.59842l0 0c-9.245331 0 -16.740158 -7.431366 -16.740158 -16.59842z" fill-rule="evenodd"/><path fill="#3d85c6" d="m475.4908 210.47769l0 0c0 -9.167053 7.494812 -16.59842 16.740143 -16.59842l0 0c4.439789 0 8.697693 1.7487488 11.837097 4.861557c3.1393738 3.1128082 4.903076 7.3346863 4.903076 11.736862l0 0c0 9.167053 -7.494812 16.59842 -16.740173 16.59842l0 0c-9.245331 0 -16.740143 -7.431366 -16.740143 -16.59842z" fill-rule="evenodd"/><path stroke="#3d85c6" stroke-width="1.0" stroke-linejoin="round" stroke-linecap="butt" d="m475.4908 210.47769l0 0c0 -9.167053 7.494812 -16.59842 16.740143 -16.59842l0 0c4.439789 0 8.697693 1.7487488 11.837097 4.861557c3.1393738 3.1128082 4.903076 7.3346863 4.903076 11.736862l0 0c0 9.167053 -7.494812 16.59842 -16.740173 16.59842l0 0c-9.245331 0 -16.740143 -7.431366 -16.740143 -16.59842z" fill-rule="evenodd"/><path fill="#000000" fill-opacity="0.0" d="m279.36484 202.69292l193.63779 -0.4409485" fill-rule="evenodd"/><path stroke="#0b5394" stroke-width="1.0" stroke-linejoin="round" stroke-linecap="butt" stroke-dasharray="4.0,3.0" d="m279.36484 202.69292l193.63779 -0.4409485" fill-rule="evenodd"/><path fill="#000000" fill-opacity="0.0" d="m279.36484 218.69292l193.38583 -0.69291687" fill-rule="evenodd"/><path stroke="#38761d" stroke-width="1.0" stroke-linejoin="round" stroke-linecap="butt" stroke-dasharray="4.0,3.0" d="m279.36484 218.69292l193.38583 -0.69291687" fill-rule="evenodd"/></g></svg>