<svg version="1.1" viewBox="0.0 0.0 960.0 720.0" fill="none" stroke="none" stroke-linecap="square" stroke-miterlimit="10" xmlns:xlink="http://www.w3.org/1999/xlink" xmlns="http://www.w3.org/2000/svg"><clipPath id="p.0"><path d="m0 0l960.0 0l0 720.0l-960.0 0l0 -720.0z" clip-rule="nonzero"/></clipPath><g clip-path="url(#p.0)"><path fill="#000000" fill-opacity="0.0" d="m0 0l960.0 0l0 720.0l-960.0 0z" fill-rule="evenodd"/><path fill="#6aa84f" d="m240.45407 210.47769l0 0c0 -9.167053 7.4948273 -16.59842 16.740143 -16.59842l0 0c4.439789 0 8.697693 1.7487488 11.837097 4.861557c3.1393738 3.1128082 4.903076 7.3346863 4.903076 11.736862l0 0c0 9.167053 -7.4948425 16.59842 -16.740173 16.59842l0 0c-9.245316 0 -16.740143 -7.431366 -16.740143 -16.59842z" fill-rule="evenodd"/><path stroke="#6aa84f" stroke-width="1.0" stroke-linejoin="round" stroke-linecap="butt" d="m240.45407 210.47769l0 0c0 -9.167053 7.4948273 -16.59842 16.740143 -16.59842l0 0c4.439789 0 8.697693 1.7487488 11.837097 4.861557c3.1393738 3.1128082 4.903076 7.3346863 4.903076 11.736862l0 0c0 9.167053 -7.4948425 16.59842 -16.740173 16.59842l0 0c-9.245316 0 -16.740143 -7.431366 -16.740143 -16.59842z" fill-rule="evenodd"/><path fill="#3d85c6" d="m524.0551 210.47769l0 0c0 -9.167053 7.494812 -16.59842 16.740173 -16.59842l0 0c4.4397583 0 8.697693 1.7487488 11.837036 4.861557c3.1394043 3.1128082 4.903137 7.3346863 4.903137 11.736862l0 0c0 9.167053 -7.494873 16.59842 -16.740173 16.59842l0 0c-9.245361 0 -16.740173 -7.431366 -16.740173 -16.59842z" fill-rule="evenodd"/><path stroke="#3d85c6" stroke-width="1.0" stroke-linejoin="round" stroke-linecap="butt" d="m524.0551 210.47769l0 0c0 -9.167053 7.494812 -16.59842 16.740173 -16.59842l0 0c4.4397583 0 8.697693 1.7487488 11.837036 4.861557c3.1394043 3.1128082 4.903137 7.3346863 4.903137 11.736862l0 0c0 9.167053 -7.494873 16.59842 -16.740173 16.59842l0 0c-9.245361 0 -16.740173 -7.431366 -16.740173 -16.59842z" fill-rule="evenodd"/><path fill="#000000" fill-opacity="0.0" d="m279.36484 202.69292l241.48032 0.22047424" fill-rule="evenodd"/><path stroke="#0b5394" stroke-width="1.0" stroke-linejoin="round" stroke-linecap="butt" stroke-dasharray="4.0,3.0" d="m279.36484 202.69292l241.48032 0.22047424" fill-rule="evenodd"/><path fill="#000000" fill-opacity="0.0" d="m279.36484 218.69292l241.92123 -0.56692505" fill-rule="evenodd"/><path stroke="#38761d" stroke-width="1.0" stroke-linejoin="round" stroke-linecap="butt" stroke-dasharray="4.0,3.0" d="m279.36484 218.69292l241.92123 -0.56692505" fill-rule="evenodd"/><path fill="#e06666" d="m383.36353 308.90552l0 0c0 -9.167053 7.494812 -16.59842 16.740143 -16.59842l0 0c4.4397583 0 8.697693 1.7487488 11.837097 4.8615417c3.1393738 3.1128235 4.903076 7.3346863 4.903076 11.736877l0 0c0 9.167053 -7.4948425 16.59842 -16.740173 16.59842l0 0c-9.245331 0 -16.740143 -7.431366 -16.740143 -16.59842z" fill-rule="evenodd"/><path stroke="#e06666" stroke-width="1.0" stroke-linejoin="round" stroke-linecap="butt" d="m383.36353 308.90552l0 0c0 -9.167053 7.494812 -16.59842 16.740143 -16.59842l0 0c4.4397583 0 8.697693 1.7487488 11.837097 4.8615417c3.1393738 3.1128235 4.903076 7.3346863 4.903076 11.736877l0 0c0 9.167053 -7.4948425 16.59842 -16.740173 16.59842l0 0c-9.245331 0 -16.740143 -7.431366 -16.740143 -16.59842z" fill-rule="evenodd"/><path fill="#000000" fill-opacity="0.0" d="m248.65617 234.69292l127.65355 83.65355" fill-rule="evenodd"/><path stroke="#38761d" stroke-width="1.0" stroke-linejoin="round" stroke-linecap="butt" stroke-dasharray="4.0,3.0" d="m248.65617 234.69292l127.65355 83.65355" fill-rule="evenodd"/><path fill="#000000" fill-opacity="0.0" d="m273.9344 230.00262l103.24408 65.66928" fill-rule="evenodd"/><path stroke="#0b5394" stroke-width="1.0" stroke-linejoin="round" stroke-linecap="butt" stroke-dasharray="4.0,3.0" d="m273.9344 230.00262l103.24408 65.66928" fill-rule="evenodd"/><path fill="#000000" fill-opacity="0.0" d="m519.95013 226.48819l-100.031494 67.40158" fill-rule="evenodd"/><path stroke="#0b5394" stroke-width="1.0" stroke-linejoin="round" stroke-linecap="butt" stroke-dasharray="4.0,3.0" d="m519.95013 226.48819l-100.031494 67.40158" fill-rule="evenodd"/><path fill="#000000" fill-opacity="0.0" d="m538.0184 234.41733l-117.63779 83.27557" fill-rule="evenodd"/><path stroke="#38761d" stroke-width="1.0" stroke-linejoin="round" stroke-linecap="butt" stroke-dasharray="4.0,3.0" d="m538.0184 234.41733l-117.63779 83.27557" fill-rule="evenodd"/></g></svg>